<?xml version="1.0" encoding="utf-8"?>
<!-- Generator: Adobe Illustrator 19.2.1, SVG Export Plug-In . SVG Version: 6.00 Build 0)  -->
<svg version="1.1" id="layer" xmlns="http://www.w3.org/2000/svg" xmlns:xlink="http://www.w3.org/1999/xlink" x="0px" y="0px"
	 viewBox="0 0 652 652" style="enable-background:new 0 0 652 652;" xml:space="preserve">
<style type="text/css">
	.st0{fill:#2270B1;}
	.st1{fill:#43AA49;}
	.st2{fill:#27AA9B;}
	.st3{fill:#176D3D;}
	.st4{fill:#22955A;}
	.st5{fill:#00AA9C;}
	.st6{fill:#27231D;}
</style>
<path class="st0" d="M494.1,309.6l66.2-126.3c5.9-10.8,9.3-23.3,9.3-36.4c0-42-33.9-75.9-75.9-75.9c-29.2,0-54.2,16.3-67.1,40.4
	l-19.2,35.9v162.2C407.3,309.6,494.1,309.6,494.1,309.6z"/>
<path class="st1" d="M407.5,309.3v-162l-19.2-35.9C375.4,87.2,350.2,71,321,71c-29.2,0-54.4,16.3-67.3,40.4l-19.2,35.9v162H407.5z"
	/>
<path class="st2" d="M147.9,309.6L81.7,183.3c-5.9-10.8-9.3-23.3-9.3-36.4c0-42,33.9-75.9,75.9-75.9c29.2,0,54.2,16.3,67.1,40.4
	l19.2,35.9v162.2C234.7,309.6,147.9,309.6,147.9,309.6z"/>
<path class="st3" d="M321,309.3l54,101.2c6.5,11.5,19,19.2,33,19.2c14.3,0,26.9-7.9,33.2-19.7l52.9-100.5l-86.5-162.2
	C407.5,147.3,321,309.3,321,309.3z"/>
<path class="st4" d="M321,309.3l-54,101.2c-6.5,11.5-19,19.2-33,19.2c-14.2,0-26.9-7.9-33.2-19.7l-52.9-100.5l86.5-162.2
	C234.5,147.3,321,309.3,321,309.3z"/>
<path class="st5" d="M213,147.1"/>
<path class="st6" d="M250.5,518.3c2.5,8.6,4.1,17.6,5.4,26.7c0.2-9.5,1.3-18.1,3.4-26.7l14.2-59h23.1L268.1,568h-22.4l-19.6-69.3
	c-1.4-4.5-2.9-10.9-3.4-19.6c-0.4,7.2-1.6,13.8-3.2,19.6L200.1,568h-22.4l-28.5-108.9h23.3l14.2,60.3c1.6,7.5,2.5,15.6,2.9,24.4
	c1.6-10.2,3.8-18.5,5.7-25.5l16.1-59.4h22.8C234.3,458.9,250.5,518.3,250.5,518.3z M365.5,475.4c-23.3,0-38,15.2-38,38.4
	c0,22.6,13.3,37.3,35.7,37.3c12.4,0,23.3-4.1,32.5-12.6l-0.2,24c-9.9,5.9-20.8,8.6-32.7,8.6c-35.3,0-59.4-24.4-59.4-57.1
	c0-32.1,23.5-57.2,59.9-57.2c13.8,0,24.4,3.4,33.2,7.7l-0.7,23.3C387.9,480.4,378.4,475.4,365.5,475.4z M428.3,539.6
	c3.4,8.1,11.1,12.9,20.1,12.9c11.3,0,17.6-5.9,17.6-14.2c0-9.5-9-11.5-24-19.4c-16.1-8.4-25.3-16.3-25.3-31.4
	c0-17.2,14.7-30.7,38.4-30.7c13.1,0,22.4,4.5,29.6,14.2L471,484c-3.4-6.3-8.8-9.5-16.2-9.5c-9.5,0-15.4,5.4-15.4,12.4
	c0,10,9.7,12.4,21.9,17.8c18.3,8.3,27.1,18.7,27.1,32.3c0,19.6-14.2,33.4-38.4,33.4c-16.9,0-28.9-6.1-34.8-16.7
	C415.2,553.8,428.3,539.6,428.3,539.6z"/>
</svg>
